{
	"asset":{
		"generator":"Khronos glTF Blender I/O v4.0.44",
		"version":"2.0"
	},
	"extensionsUsed":[
		"KHR_materials_specular",
		"KHR_materials_ior"
	],
	"scene":0,
	"scenes":[
		{
			"name":"Scene",
			"nodes":[
				0
			]
		}
	],
	"nodes":[
		{
			"mesh":0,
			"name":"low",
			"rotation":[
				0.7071068286895752,
				0,
				0,
				0.7071068286895752
			],
			"scale":[
				0.009999999776482582,
				0.009999999776482582,
				0.009999999776482582
			]
		}
	],
	"materials":[
		{
			"doubleSided":true,
			"emissiveFactor":[
				1,
				1,
				1
			],
			"emissiveTexture":{
				"index":0
			},
			"extensions":{
				"KHR_materials_specular":{
					"specularColorFactor":[
						2.0,
						2.0,
						2.0
					]
				},
				"KHR_materials_ior":{
					"ior":1.4500000476837158
				}
			},
			"name":"DefaultMaterial",
			"pbrMetallicRoughness":{
				"baseColorTexture":{
					"index":1
				},
				"metallicRoughnessTexture":{
					"index":2
				}
			}
		}
	],
	"meshes":[
		{
			"name":"low",
			"primitives":[
				{
					"attributes":{
						"COLOR_0":0,
						"POSITION":1,
						"NORMAL":2,
						"TEXCOORD_0":3
					},
					"indices":4,
					"material":0
				}
			]
		}
	],
	"textures":[
		{
			"sampler":0,
			"source":0
		},
		{
			"sampler":0,
			"source":1
		},
		{
			"sampler":0,
			"source":2
		}
	],
	"images":[
		{
			"mimeType":"image/png",
			"name":"DefaultMaterial_Emissive",
			"uri":"textures/DefaultMaterial_Emissive.png"
		},
		{
			"mimeType":"image/png",
			"name":"DefaultMaterial_Base_color",
			"uri":"textures/DefaultMaterial_Base_color.png"
		},
		{
			"mimeType":"image/png",
			"name":"DefaultMaterial_Metallic-DefaultMaterial_Roughness",
			"uri":"textures/DefaultMaterial_Metallic-DefaultMaterial_Roughness.png"
		}
	],
	"accessors":[
		{
			"bufferView":0,
			"componentType":5123,
			"count":20773,
			"normalized":true,
			"type":"VEC4"
		},
		{
			"bufferView":1,
			"componentType":5126,
			"count":20773,
			"max":[
				2.2119059562683105,
				0.9676005840301514,
				1.274014949798584
			],
			"min":[
				-1.626352071762085,
				-1.135718584060669,
				-1.6551599502563477
			],
			"type":"VEC3"
		},
		{
			"bufferView":2,
			"componentType":5126,
			"count":20773,
			"type":"VEC3"
		},
		{
			"bufferView":3,
			"componentType":5126,
			"count":20773,
			"type":"VEC2"
		},
		{
			"bufferView":4,
			"componentType":5123,
			"count":100623,
			"type":"SCALAR"
		}
	],
	"bufferViews":[
		{
			"buffer":0,
			"byteLength":166184,
			"byteOffset":0,
			"target":34962
		},
		{
			"buffer":0,
			"byteLength":249276,
			"byteOffset":166184,
			"target":34962
		},
		{
			"buffer":0,
			"byteLength":249276,
			"byteOffset":415460,
			"target":34962
		},
		{
			"buffer":0,
			"byteLength":166184,
			"byteOffset":664736,
			"target":34962
		},
		{
			"buffer":0,
			"byteLength":201246,
			"byteOffset":830920,
			"target":34963
		}
	],
	"samplers":[
		{
			"magFilter":9729,
			"minFilter":9987
		}
	],
	"buffers":[
		{
			"byteLength":1032168,
			"uri":"scene.bin"
		}
	]
}
